<svg width="35" height="10" viewBox="0 0 35 10" fill="none" xmlns="http://www.w3.org/2000/svg">
<path d="M5.676 8.268C5.116 8.852 4.372 9.144 3.444 9.144C2.516 9.144 1.772 8.852 1.212 8.268C0.66 7.676 0.384 6.952 0.384 6.096C0.384 5.24 0.66 4.52 1.212 3.936C1.772 3.352 2.516 3.06 3.444 3.06C4.372 3.06 5.116 3.352 5.676 3.936C6.236 4.52 6.516 5.24 6.516 6.096C6.516 6.952 6.236 7.676 5.676 8.268ZM2.364 7.308C2.628 7.628 2.988 7.788 3.444 7.788C3.9 7.788 4.26 7.628 4.524 7.308C4.796 6.98 4.932 6.576 4.932 6.096C4.932 5.624 4.796 5.228 4.524 4.908C4.26 4.58 3.9 4.416 3.444 4.416C2.988 4.416 2.628 4.58 2.364 4.908C2.1 5.228 1.968 5.624 1.968 6.096C1.968 6.576 2.1 6.98 2.364 7.308ZM9.17063 9H7.64663V3.204H9.17063V3.996C9.38663 3.724 9.66263 3.5 9.99863 3.324C10.3346 3.148 10.6746 3.06 11.0186 3.06V4.548C10.9146 4.524 10.7746 4.512 10.5986 4.512C10.3426 4.512 10.0706 4.576 9.78263 4.704C9.49463 4.832 9.29063 4.988 9.17063 5.172V9ZM14.6708 9.144C13.7748 9.144 13.0388 8.86 12.4628 8.292C11.8868 7.724 11.5988 6.992 11.5988 6.096C11.5988 5.208 11.8868 4.48 12.4628 3.912C13.0388 3.344 13.7748 3.06 14.6708 3.06C15.6948 3.06 16.4588 3.408 16.9628 4.104L15.9668 5.04C15.6868 4.624 15.2788 4.416 14.7428 4.416C14.2788 4.416 13.8988 4.572 13.6028 4.884C13.3148 5.188 13.1708 5.592 13.1708 6.096C13.1708 6.6 13.3148 7.008 13.6028 7.32C13.8988 7.632 14.2788 7.788 14.7428 7.788C15.2628 7.788 15.6708 7.58 15.9668 7.164L16.9628 8.088C16.4588 8.792 15.6948 9.144 14.6708 9.144ZM22.9631 9H21.4391V8.4C21.0231 8.896 20.4111 9.144 19.6031 9.144C19.0831 9.144 18.6151 8.976 18.1991 8.64C17.7911 8.296 17.5871 7.824 17.5871 7.224C17.5871 6.6 17.7871 6.132 18.1871 5.82C18.5951 5.508 19.0671 5.352 19.6031 5.352C20.4271 5.352 21.0391 5.588 21.4391 6.06V5.28C21.4391 4.984 21.3231 4.748 21.0911 4.572C20.8591 4.396 20.5511 4.308 20.1671 4.308C19.5351 4.308 18.9711 4.536 18.4751 4.992L17.8991 3.972C18.5871 3.364 19.4311 3.06 20.4311 3.06C21.1751 3.06 21.7831 3.232 22.2551 3.576C22.7271 3.92 22.9631 4.48 22.9631 5.256V9ZM20.2151 8.112C20.7831 8.112 21.1911 7.944 21.4391 7.608V6.888C21.1911 6.552 20.7831 6.384 20.2151 6.384C19.9031 6.384 19.6431 6.464 19.4351 6.624C19.2271 6.776 19.1231 6.988 19.1231 7.26C19.1231 7.524 19.2271 7.732 19.4351 7.884C19.6431 8.036 19.9031 8.112 20.2151 8.112ZM26.3468 9H24.8108V4.536H23.8508V3.204H24.8108V2.892C24.8108 2.276 24.9908 1.788 25.3508 1.428C25.7188 1.06 26.1908 0.875999 26.7668 0.875999C27.1988 0.875999 27.5668 0.956 27.8708 1.116L27.5588 2.22C27.4228 2.124 27.2588 2.076 27.0668 2.076C26.8428 2.076 26.6668 2.148 26.5388 2.292C26.4108 2.436 26.3468 2.636 26.3468 2.892V3.204H27.5228V4.536H26.3468V9ZM29.7908 2.316C29.6148 2.492 29.4028 2.58 29.1548 2.58C28.9068 2.58 28.6908 2.492 28.5068 2.316C28.3308 2.132 28.2428 1.916 28.2428 1.668C28.2428 1.42 28.3308 1.208 28.5068 1.032C28.6908 0.855999 28.9068 0.767999 29.1548 0.767999C29.4108 0.767999 29.6268 0.855999 29.8028 1.032C29.9788 1.208 30.0668 1.42 30.0668 1.668C30.0668 1.916 29.9748 2.132 29.7908 2.316ZM29.9228 9H28.3988V3.204H29.9228V9ZM33.3797 9.144C32.8437 9.144 32.4357 9.008 32.1557 8.736C31.8757 8.464 31.7357 8.072 31.7357 7.56V4.536H30.7757V3.204H31.7357V1.62H33.2717V3.204H34.4477V4.536H33.2717V7.152C33.2717 7.336 33.3197 7.488 33.4157 7.608C33.5117 7.728 33.6397 7.788 33.7997 7.788C34.0397 7.788 34.2157 7.732 34.3277 7.62L34.6517 8.772C34.3717 9.02 33.9477 9.144 33.3797 9.144Z" fill="#212529"/>
</svg>
